<?xml version="1.0" encoding="UTF-8"?>
<svg width="200" height="200" viewBox="0 0 200 200" fill="none" xmlns="http://www.w3.org/2000/svg">
  <rect width="200" height="200" rx="30" fill="#3880ff"/>
  <path d="M50 100C50 72.3858 72.3858 50 100 50C127.614 50 150 72.3858 150 100C150 127.614 127.614 150 100 150C72.3858 150 50 127.614 50 100Z" fill="white"/>
  <path d="M100 70C83.4584 70 70 83.4584 70 100C70 116.542 83.4584 130 100 130C116.542 130 130 116.542 130 100C130 83.4584 116.542 70 100 70Z" fill="#3880ff"/>
  <path d="M100 80C92.268 80 86 86.268 86 94H94C94 90.6863 96.6863 88 100 88C103.314 88 106 90.6863 106 94C106 100 100 98 100 104V108H108V102.1C108 95.6 114 93.3 114 94C114 86.268 107.732 80 100 80Z" fill="white"/>
</svg>
